  0
SECTION
  2
HEADER
  9
$ACADVER
  1
AC1014
  9
$HANDSEED
  5
FFFF
  9
$MEASUREMENT
 70
     1
  0
ENDSEC
  0
SECTION
  2
TABLES
  0
TABLE
  2
VPORT
  5
8
330
0
100
AcDbSymbolTable
 70
     4
  0
VPORT
  5
2E
330
8
100
AcDbSymbolTableRecord
100
AcDbViewportTableRecord
  2
*ACTIVE
 70
     0
 10
0.0
 20
0.0
 11
1.0
 21
1.0
 12
210.0
 22
148.5
 13
0.0
 23
0.0
 14
10.0
 24
10.0
 15
10.0
 25
10.0
 16
0.0
 26
0.0
 36
1.0
 17
0.0
 27
0.0
 37
0.0
 40
341.0
 41
1.24
 42
50.0
 43
0.0
 44
0.0
 50
0.0
 51
0.0
 71
     0
 72
   100
 73
     1
 74
     3
 75
     0
 76
     0
 77
     0
 78
     0
  0
ENDTAB
  0
TABLE
  2
LTYPE
  5
5
330
0
100
AcDbSymbolTable
 70
     1
  0
LTYPE
  5
14
330
5
100
AcDbSymbolTableRecord
100
AcDbLinetypeTableRecord
  2
BYBLOCK
 70
     0
  3

 72
    65
 73
     0
 40
0.0
  0
LTYPE
  5
15
330
5
100
AcDbSymbolTableRecord
100
AcDbLinetypeTableRecord
  2
BYLAYER
 70
     0
  3

 72
    65
 73
     0
 40
0.0
  0
LTYPE
  5
16
330
5
100
AcDbSymbolTableRecord
100
AcDbLinetypeTableRecord
  2
CONTINUOUS
 70
     0
  3
Solid line
 72
    65
 73
     0
 40
0.0
  0
ENDTAB
  0
TABLE
  2
LAYER
  5
2
100
AcDbSymbolTable
 70
11
  0
LAYER
  5
50
100
AcDbSymbolTableRecord
100
AcDbLayerTableRecord
  2
0
 70
0
  6
CONTINUOUS
  0
LAYER
  5
51
100
AcDbSymbolTableRecord
100
AcDbLayerTableRecord
  2
un178
 70
0
  6
CONTINUOUS
  0
LAYER
  5
52
100
AcDbSymbolTableRecord
100
AcDbLayerTableRecord
  2
outline
 70
0
  6
CONTINUOUS
  0
LAYER
  5
53
100
AcDbSymbolTableRecord
100
AcDbLayerTableRecord
  2
holes
 70
0
  6
CONTINUOUS
  0
LAYER
  5
54
100
AcDbSymbolTableRecord
100
AcDbLayerTableRecord
  2
circuitholes
 70
0
  6
CONTINUOUS
  0
LAYER
  5
55
100
AcDbSymbolTableRecord
100
AcDbLayerTableRecord
  2
vent
 70
0
  6
CONTINUOUS
  0
LAYER
  5
56
100
AcDbSymbolTableRecord
100
AcDbLayerTableRecord
  2
rj45
 70
0
  6
CONTINUOUS
  0
LAYER
  5
57
100
AcDbSymbolTableRecord
100
AcDbLayerTableRecord
  2
insert
 70
0
  6
CONTINUOUS
  0
LAYER
  5
58
100
AcDbSymbolTableRecord
100
AcDbLayerTableRecord
  2
circuit
 70
0
  6
CONTINUOUS
  0
LAYER
  5
59
100
AcDbSymbolTableRecord
100
AcDbLayerTableRecord
  2
Layer_1
 70
0
  6
CONTINUOUS
  0
LAYER
  5
5a
100
AcDbSymbolTableRecord
100
AcDbLayerTableRecord
  2
sensors
 70
0
  6
CONTINUOUS
  0
ENDTAB
  0
TABLE
  2
STYLE
  5
3
330
0
100
AcDbSymbolTable
 70
     1
  0
STYLE
  5
11
330
3
100
AcDbSymbolTableRecord
100
AcDbTextStyleTableRecord
  2
STANDARD
 70
     0
 40
0.0
 41
1.0
 50
0.0
 71
     0
 42
2.5
  3
txt
  4

  0
ENDTAB
  0
TABLE
  2
VIEW
  5
6
330
0
100
AcDbSymbolTable
 70
     0
  0
ENDTAB
  0
TABLE
  2
UCS
  5
7
330
0
100
AcDbSymbolTable
 70
     0
  0
ENDTAB
  0
TABLE
  2
APPID
  5
9
330
0
100
AcDbSymbolTable
 70
     2
  0
APPID
  5
12
330
9
100
AcDbSymbolTableRecord
100
AcDbRegAppTableRecord
  2
ACAD
 70
     0
  0
ENDTAB
  0
TABLE
  2
DIMSTYLE
  5
A
330
0
100
AcDbSymbolTable
 70
     1
  0
DIMSTYLE
105
27
330
A
100
AcDbSymbolTableRecord
100
AcDbDimStyleTableRecord
  2
ISO-25
 70
     0
  3

  4

  5

  6

  7

 40
1.0
 41
2.5
 42
0.625
 43
3.75
 44
1.25
 45
0.0
 46
0.0
 47
0.0
 48
0.0
140
2.5
141
2.5
142
0.0
143
0.03937007874016
144
1.0
145
0.0
146
1.0
147
0.625
 71
     0
 72
     0
 73
     0
 74
     0
 75
     0
 76
     0
 77
     1
 78
     8
170
     0
171
     3
172
     1
173
     0
174
     0
175
     0
176
     0
177
     0
178
     0
270
     2
271
     2
272
     2
273
     2
274
     3
340
11
275
     0
280
     0
281
     0
282
     0
283
     0
284
     8
285
     0
286
     0
287
     3
288
     0
  0
ENDTAB
  0
TABLE
  2
BLOCK_RECORD
  5
1
330
0
100
AcDbSymbolTable
 70
     1
  0
BLOCK_RECORD
  5
1F
330
1
100
AcDbSymbolTableRecord
100
AcDbBlockTableRecord
  2
*MODEL_SPACE
  0
BLOCK_RECORD
  5
1B
330
1
100
AcDbSymbolTableRecord
100
AcDbBlockTableRecord
  2
*PAPER_SPACE
  0
ENDTAB
  0
ENDSEC
  0
SECTION
  2
BLOCKS
  0
BLOCK
  5
20
330
1F
100
AcDbEntity
  8
0
100
AcDbBlockBegin
  2
*MODEL_SPACE
 70
     0
 10
0.0
 20
0.0
 30
0.0
  3
*MODEL_SPACE
  1

  0
ENDBLK
  5
21
330
1F
100
AcDbEntity
  8
0
100
AcDbBlockEnd
  0
BLOCK
  5
1C
330
1B
100
AcDbEntity
 67
     1
  8
0
100
AcDbBlockBegin
  2
*PAPER_SPACE
  1

  0
ENDBLK
  5
1D
330
1B
100
AcDbEntity
 67
     1
  8
0
100
AcDbBlockEnd
  0
ENDSEC
  0
SECTION
  2
ENTITIES
  0
LWPOLYLINE
  5
100
100
AcDbEntity
  8
un178
 62
7
100
AcDbPolyline
 90
4
 70
1
 10
-3.349607
 20
89.003302
 30
0.0
 10
81.933010
 20
89.003302
 30
0.0
 10
81.933010
 20
18.618525
 30
0.0
 10
-3.349607
 20
18.618525
 30
0.0
  0
LWPOLYLINE
  5
101
100
AcDbEntity
  8
un178
 62
7
100
AcDbPolyline
 90
4
 70
1
 10
-3.349607
 20
18.618536
 30
0.0
 10
81.933010
 20
18.618536
 30
0.0
 10
81.933010
 20
-51.766241
 30
0.0
 10
-3.349607
 20
-51.766241
 30
0.0
  0
LWPOLYLINE
  5
102
100
AcDbEntity
  8
outline
 62
7
100
AcDbPolyline
 90
17
 70
1
 10
-6.290741
 20
93.034321
 30
0.0
 10
-7.890919
 20
91.434141
 30
0.0
 10
-7.890919
 20
73.403683
 30
0.0
 10
-11.678835
 20
69.688529
 30
0.0
 10
-39.680061
 20
69.683195
 30
0.0
 10
-54.654374
 20
55.604054
 30
0.0
 10
-54.654374
 20
-16.176825
 30
0.0
 10
-53.163337
 20
-19.150657
 30
0.0
 10
-50.408363
 20
-20.203459
 30
0.0
 10
-17.573018
 20
-20.203459
 30
0.0
 10
-8.080538
 20
-31.527626
 30
0.0
 10
-8.080538
 20
-54.708428
 30
0.0
 10
-6.480361
 20
-56.308628
 30
0.0
 10
84.759975
 20
-56.308628
 30
0.0
 10
86.470834
 20
-54.708428
 30
0.0
 10
86.470834
 20
91.434141
 30
0.0
 10
84.759975
 20
93.034321
 30
0.0
  0
LWPOLYLINE
  5
103
100
AcDbEntity
  8
holes
 62
7
100
AcDbPolyline
 90
8
 70
1
 10
0.011884
 20
86.071208
 30
0.0
 10
-0.915569
 20
85.686748
 30
0.0
 10
-1.299662
 20
84.759142
 30
0.0
 10
-0.915388
 20
83.831870
 30
0.0
 10
0.011884
 20
83.447596
 30
0.0
 10
0.939492
 20
83.831690
 30
0.0
 10
1.323952
 20
84.759142
 30
0.0
 10
0.939675
 20
85.686931
 30
0.0
  0
LWPOLYLINE
  5
104
100
AcDbEntity
  8
holes
 62
7
100
AcDbPolyline
 90
8
 70
1
 10
78.198328
 20
86.071208
 30
0.0
 10
77.270872
 20
85.686748
 30
0.0
 10
76.886779
 20
84.759142
 30
0.0
 10
77.271056
 20
83.831870
 30
0.0
 10
78.198328
 20
83.447596
 30
0.0
 10
79.125936
 20
83.831690
 30
0.0
 10
79.510393
 20
84.759142
 30
0.0
 10
79.126117
 20
85.686931
 30
0.0
  0
LWPOLYLINE
  5
105
100
AcDbEntity
  8
holes
 62
7
100
AcDbPolyline
 90
8
 70
1
 10
0.011884
 20
24.069446
 30
0.0
 10
-0.915572
 20
23.684981
 30
0.0
 10
-1.299662
 20
22.757378
 30
0.0
 10
-0.915394
 20
21.830092
 30
0.0
 10
0.011884
 20
21.393119
 30
0.0
 10
0.939497
 20
21.777215
 30
0.0
 10
1.323952
 20
22.757378
 30
0.0
 10
0.939675
 20
23.685164
 30
0.0
  0
LWPOLYLINE
  5
106
100
AcDbEntity
  8
holes
 62
7
100
AcDbPolyline
 90
8
 70
1
 10
78.198328
 20
24.069446
 30
0.0
 10
77.270870
 20
23.684981
 30
0.0
 10
76.886779
 20
22.757378
 30
0.0
 10
77.271047
 20
21.830092
 30
0.0
 10
78.198328
 20
21.445810
 30
0.0
 10
79.125942
 20
21.829906
 30
0.0
 10
79.510393
 20
22.757378
 30
0.0
 10
79.126117
 20
23.685164
 30
0.0
  0
LWPOLYLINE
  5
107
100
AcDbEntity
  8
holes
 62
7
100
AcDbPolyline
 90
8
 70
1
 10
0.011884
 20
15.796514
 30
0.0
 10
-0.915560
 20
15.412071
 30
0.0
 10
-1.299662
 20
14.484463
 30
0.0
 10
-0.915394
 20
13.557194
 30
0.0
 10
0.011884
 20
13.172892
 30
0.0
 10
0.939497
 20
13.556996
 30
0.0
 10
1.323952
 20
14.484463
 30
0.0
 10
0.939667
 20
15.412268
 30
0.0
  0
LWPOLYLINE
  5
108
100
AcDbEntity
  8
holes
 62
7
100
AcDbPolyline
 90
8
 70
1
 10
78.198328
 20
15.796514
 30
0.0
 10
77.270881
 20
15.412071
 30
0.0
 10
76.886779
 20
14.484463
 30
0.0
 10
77.271047
 20
13.557194
 30
0.0
 10
78.198328
 20
13.172892
 30
0.0
 10
79.125942
 20
13.556996
 30
0.0
 10
79.510393
 20
14.484463
 30
0.0
 10
79.126111
 20
15.412268
 30
0.0
  0
LWPOLYLINE
  5
109
100
AcDbEntity
  8
holes
 62
7
100
AcDbPolyline
 90
8
 70
1
 10
0.011884
 20
-46.210502
 30
0.0
 10
-0.915572
 20
-46.594974
 30
0.0
 10
-1.299662
 20
-47.522582
 30
0.0
 10
-0.915394
 20
-48.449851
 30
0.0
 10
0.011884
 20
-48.834153
 30
0.0
 10
0.939497
 20
-48.450048
 30
0.0
 10
1.323952
 20
-47.522582
 30
0.0
 10
0.939675
 20
-46.594776
 30
0.0
  0
LWPOLYLINE
  5
10a
100
AcDbEntity
  8
holes
 62
7
100
AcDbPolyline
 90
8
 70
1
 10
78.198328
 20
-46.210502
 30
0.0
 10
77.270870
 20
-46.594974
 30
0.0
 10
76.886779
 20
-47.522582
 30
0.0
 10
77.271047
 20
-48.449851
 30
0.0
 10
78.198328
 20
-48.834153
 30
0.0
 10
79.125942
 20
-48.450048
 30
0.0
 10
79.510393
 20
-47.522582
 30
0.0
 10
79.126117
 20
-46.594776
 30
0.0
  0
LWPOLYLINE
  5
10b
100
AcDbEntity
  8
circuitholes
 62
7
100
AcDbPolyline
 90
8
 70
1
 10
-37.593499
 20
45.440177
 30
0.0
 10
-38.520951
 20
45.055719
 30
0.0
 10
-38.905045
 20
44.128114
 30
0.0
 10
-38.520771
 20
43.200842
 30
0.0
 10
-37.593499
 20
42.816566
 30
0.0
 10
-36.665891
 20
43.200659
 30
0.0
 10
-36.281431
 20
44.128114
 30
0.0
 10
-36.665707
 20
45.055903
 30
0.0
  0
LWPOLYLINE
  5
10c
100
AcDbEntity
  8
circuitholes
 62
7
100
AcDbPolyline
 90
8
 70
1
 10
-6.551022
 20
47.121053
 30
0.0
 10
-7.478477
 20
46.736593
 30
0.0
 10
-7.862571
 20
45.808987
 30
0.0
 10
-7.478294
 20
44.881715
 30
0.0
 10
-6.551022
 20
44.497442
 30
0.0
 10
-5.623414
 20
44.881535
 30
0.0
 10
-5.238957
 20
45.808987
 30
0.0
 10
-5.623233
 20
46.736776
 30
0.0
  0
LWPOLYLINE
  5
10d
100
AcDbEntity
  8
circuitholes
 62
7
100
AcDbPolyline
 90
8
 70
1
 10
-10.736813
 20
-13.340362
 30
0.0
 10
-11.664270
 20
-13.724834
 30
0.0
 10
-12.048360
 20
-14.652442
 30
0.0
 10
-11.664082
 20
-15.579711
 30
0.0
 10
-10.736813
 20
-15.963985
 30
0.0
 10
-9.809207
 20
-15.579880
 30
0.0
 10
-9.424747
 20
-14.652442
 30
0.0
 10
-9.809023
 20
-13.724664
 30
0.0
  0
LWPOLYLINE
  5
10e
100
AcDbEntity
  8
vent
 62
7
100
AcDbPolyline
 90
8
 70
1
 10
34.864023
 20
87.046263
 30
0.0
 10
24.915276
 20
84.101740
 30
0.0
 10
24.915276
 20
66.647509
 30
0.0
 10
34.864023
 20
63.702986
 30
0.0
 10
34.864023
 20
70.635896
 30
0.0
 10
30.369722
 20
71.689062
 30
0.0
 10
30.369722
 20
79.235887
 30
0.0
 10
34.864023
 20
80.274583
 30
0.0
  0
LWPOLYLINE
  5
10f
100
AcDbEntity
  8
vent
 62
7
100
AcDbPolyline
 90
7
 70
1
 10
22.915398
 20
83.509527
 30
0.0
 10
7.636743
 20
78.987323
 30
0.0
 10
7.636743
 20
71.761926
 30
0.0
 10
22.915398
 20
67.239718
 30
0.0
 10
22.915398
 20
73.457427
 30
0.0
 10
14.694711
 20
75.448005
 30
0.0
 10
22.915398
 20
77.425660
 30
0.0
  0
LWPOLYLINE
  5
110
100
AcDbEntity
  8
vent
 62
7
100
AcDbPolyline
 90
8
 70
1
 10
44.034521
 20
61.632829
 30
0.0
 10
44.034521
 20
41.492969
 30
0.0
 10
50.758141
 20
41.492969
 30
0.0
 10
50.758141
 20
48.250181
 30
0.0
 10
59.161251
 20
48.250181
 30
0.0
 10
59.161251
 20
54.875616
 30
0.0
 10
50.758141
 20
54.875616
 30
0.0
 10
50.758141
 20
61.632829
 30
0.0
  0
LWPOLYLINE
  5
111
100
AcDbEntity
  8
vent
 62
7
100
AcDbPolyline
 90
4
 70
1
 10
7.636743
 20
61.596654
 30
0.0
 10
7.636743
 20
54.971213
 30
0.0
 10
22.915398
 20
54.971213
 30
0.0
 10
22.915398
 20
61.596654
 30
0.0
  0
LWPOLYLINE
  5
112
100
AcDbEntity
  8
vent
 62
7
100
AcDbPolyline
 90
6
 70
1
 10
24.915276
 20
61.596654
 30
0.0
 10
24.915276
 20
54.971213
 30
0.0
 10
28.159521
 20
54.971213
 30
0.0
 10
28.159521
 20
44.630244
 30
0.0
 10
34.864023
 20
44.630244
 30
0.0
 10
34.864023
 20
61.596654
 30
0.0
  0
LWPOLYLINE
  5
113
100
AcDbEntity
  8
vent
 62
7
100
AcDbPolyline
 90
4
 70
1
 10
61.161128
 20
54.875616
 30
0.0
 10
61.161128
 20
48.250181
 30
0.0
 10
71.261803
 20
48.250181
 30
0.0
 10
71.261803
 20
54.875616
 30
0.0
  0
LWPOLYLINE
  5
114
100
AcDbEntity
  8
vent
 62
7
100
AcDbPolyline
 90
8
 70
1
 10
34.864023
 20
43.752781
 30
0.0
 10
24.915276
 20
40.808255
 30
0.0
 10
24.915276
 20
23.354022
 30
0.0
 10
34.864023
 20
20.409504
 30
0.0
 10
34.864023
 20
27.342403
 30
0.0
 10
30.369722
 20
28.395577
 30
0.0
 10
30.369722
 20
35.942405
 30
0.0
 10
34.864023
 20
36.981102
 30
0.0
  0
LWPOLYLINE
  5
115
100
AcDbEntity
  8
vent
 62
7
100
AcDbPolyline
 90
7
 70
1
 10
22.915398
 20
40.216049
 30
0.0
 10
7.636743
 20
35.693838
 30
0.0
 10
7.636743
 20
28.468444
 30
0.0
 10
22.915398
 20
23.946242
 30
0.0
 10
22.915398
 20
30.163951
 30
0.0
 10
14.694711
 20
32.154515
 30
0.0
 10
22.915398
 20
34.132176
 30
0.0
  0
LWPOLYLINE
  5
116
100
AcDbEntity
  8
vent
 62
7
100
AcDbPolyline
 90
8
 70
1
 10
44.034521
 20
38.494702
 30
0.0
 10
44.034521
 20
20.738166
 30
0.0
 10
49.848124
 20
20.738166
 30
0.0
 10
49.848124
 20
31.854290
 30
0.0
 10
54.174985
 20
31.854290
 30
0.0
 10
54.174985
 20
21.542767
 30
0.0
 10
59.161251
 20
21.542767
 30
0.0
 10
59.161251
 20
38.494702
 30
0.0
  0
LWPOLYLINE
  5
117
100
AcDbEntity
  8
vent
 62
7
100
AcDbPolyline
 90
6
 70
1
 10
61.161128
 20
38.494702
 30
0.0
 10
61.161128
 20
31.854290
 30
0.0
 10
65.095772
 20
31.854290
 30
0.0
 10
65.095772
 20
20.416723
 30
0.0
 10
71.261803
 20
20.416723
 30
0.0
 10
71.261803
 20
38.494702
 30
0.0
  0
LWPOLYLINE
  5
118
100
AcDbEntity
  8
vent
 62
7
100
AcDbPolyline
 90
28
 70
1
 10
25.856303
 20
19.458641
 30
0.0
 10
25.605673
 20
16.306904
 30
0.0
 10
25.355042
 20
13.155168
 30
0.0
 10
27.072893
 20
12.844187
 30
0.0
 10
28.326436
 20
12.321117
 30
0.0
 10
29.566235
 20
11.078069
 30
0.0
 10
29.979566
 20
9.396222
 30
0.0
 10
29.770443
 20
8.141801
 30
0.0
 10
29.143441
 20
7.216507
 30
0.0
 10
28.224266
 20
6.635129
 30
0.0
 10
27.175086
 20
6.441355
 30
0.0
 10
26.172140
 20
6.624405
 30
0.0
 10
25.280628
 20
7.173101
 30
0.0
 10
25.096815
 20
7.361315
 30
0.0
 10
24.915276
 20
7.596858
 30
0.0
 10
24.915276
 20
3.828598
 30
0.0
 10
24.915276
 20
0.060339
 30
0.0
 10
25.453505
 20
0.019699
 30
0.0
 10
26.005132
 20
0.006152
 30
0.0
 10
28.521601
 20
0.291451
 30
0.0
 10
30.833777
 20
1.147177
 30
0.0
 10
32.779208
 20
2.514685
 30
0.0
 10
34.195329
 20
4.335582
 30
0.0
 10
35.044933
 20
6.650172
 30
0.0
 10
35.328075
 20
9.498584
 30
0.0
 10
34.659550
 20
14.127734
 30
0.0
 10
32.653819
 20
17.074882
 30
0.0
 10
29.617221
 20
18.723875
 30
0.0
  0
LWPOLYLINE
  5
119
100
AcDbEntity
  8
vent
 62
7
100
AcDbPolyline
 90
8
 70
1
 10
71.261803
 20
18.997710
 30
0.0
 10
61.161128
 20
16.008209
 30
0.0
 10
61.161128
 20
-1.356106
 30
0.0
 10
71.261803
 20
-4.345573
 30
0.0
 10
71.261803
 20
2.587329
 30
0.0
 10
66.766988
 20
3.640497
 30
0.0
 10
66.766988
 20
11.187317
 30
0.0
 10
71.261803
 20
12.226008
 30
0.0
  0
LWPOLYLINE
  5
11a
100
AcDbEntity
  8
vent
 62
7
100
AcDbPolyline
 90
36
 70
1
 10
15.140161
 20
18.654576
 30
0.0
 10
13.101886
 20
18.416820
 30
0.0
 10
11.184330
 20
17.703713
 30
0.0
 10
9.512941
 20
16.500661
 30
0.0
 10
8.250142
 20
14.822255
 30
0.0
 10
7.442118
 20
12.537045
 30
0.0
 10
7.172689
 20
9.542470
 30
0.0
 10
7.660301
 20
5.922462
 30
0.0
 10
9.122958
 20
3.282386
 30
0.0
 10
11.630233
 20
1.556343
 30
0.0
 10
15.288990
 20
0.707870
 30
0.0
 10
15.521017
 20
3.830659
 30
0.0
 10
15.753044
 20
6.953476
 30
0.0
 10
14.165191
 20
7.341108
 30
0.0
 10
13.078788
 20
8.006644
 30
0.0
 10
12.452046
 20
8.949916
 30
0.0
 10
12.243180
 20
10.200330
 30
0.0
 10
12.400801
 20
11.213169
 30
0.0
 10
12.874149
 20
11.940766
 30
0.0
 10
13.556913
 20
12.379791
 30
0.0
 10
14.378967
 20
12.526264
 30
0.0
 10
14.996446
 20
12.405586
 30
0.0
 10
15.548922
 20
12.043608
 30
0.0
 10
16.068755
 20
11.253583
 30
0.0
 10
16.551445
 20
9.819979
 30
0.0
 10
17.749578
 20
6.093940
 30
0.0
 10
18.966284
 20
3.603808
 30
0.0
 10
20.322007
 20
1.976826
 30
0.0
 10
21.974886
 20
0.869103
 30
0.0
 10
22.438285
 20
0.664323
 30
0.0
 10
22.915398
 20
0.487200
 30
0.0
 10
22.915398
 20
6.678817
 30
0.0
 10
22.915398
 20
12.870434
 30
0.0
 10
21.759230
 20
15.142944
 30
0.0
 10
20.396172
 20
16.782328
 30
0.0
 10
18.051394
 20
18.186485
 30
0.0
  0
LWPOLYLINE
  5
11b
100
AcDbEntity
  8
vent
 62
7
100
AcDbPolyline
 90
7
 70
1
 10
59.161251
 20
15.416022
 30
0.0
 10
44.034521
 20
10.938764
 30
0.0
 10
44.034521
 20
3.713367
 30
0.0
 10
59.161251
 20
-0.763891
 30
0.0
 10
59.161251
 20
5.446070
 30
0.0
 10
51.091976
 20
7.399443
 30
0.0
 10
59.161251
 20
9.340935
 30
0.0
  0
LWPOLYLINE
  5
11c
100
AcDbEntity
  8
vent
 62
7
100
AcDbPolyline
 90
8
 70
1
 10
7.636743
 20
-3.372527
 30
0.0
 10
7.636743
 20
-9.998456
 30
0.0
 10
17.926038
 20
-9.998456
 30
0.0
 10
7.636743
 20
-16.945836
 30
0.0
 10
7.636743
 20
-25.750464
 30
0.0
 10
17.907434
 20
-17.940105
 30
0.0
 10
22.915398
 20
-20.350790
 30
0.0
 10
22.915398
 20
-3.372527
 30
0.0
  0
LWPOLYLINE
  5
11d
100
AcDbEntity
  8
vent
 62
7
100
AcDbPolyline
 90
5
 70
1
 10
24.915276
 20
-3.372527
 30
0.0
 10
24.915276
 20
-12.480488
 30
0.0
 10
28.215333
 20
-9.998456
 30
0.0
 10
34.864023
 20
-9.998456
 30
0.0
 10
34.864023
 20
-3.372527
 30
0.0
  0
LWPOLYLINE
  5
11e
100
AcDbEntity
  8
vent
 62
7
100
AcDbPolyline
 90
7
 70
1
 10
44.034521
 20
-6.378533
 30
0.0
 10
44.034521
 20
-15.095841
 30
0.0
 10
59.161251
 20
-18.167463
 30
0.0
 10
59.161251
 20
-13.550194
 30
0.0
 10
50.497698
 20
-11.805073
 30
0.0
 10
59.161251
 20
-11.805073
 30
0.0
 10
59.161251
 20
-6.378533
 30
0.0
  0
LWPOLYLINE
  5
11f
100
AcDbEntity
  8
vent
 62
7
100
AcDbPolyline
 90
4
 70
1
 10
61.161128
 20
-6.378533
 30
0.0
 10
61.161128
 20
-11.805073
 30
0.0
 10
71.261803
 20
-11.805073
 30
0.0
 10
71.261803
 20
-6.378533
 30
0.0
  0
LWPOLYLINE
  5
120
100
AcDbEntity
  8
vent
 62
7
100
AcDbPolyline
 90
4
 70
1
 10
24.915276
 20
-13.925860
 30
0.0
 10
24.915276
 20
-21.312999
 30
0.0
 10
34.864023
 20
-26.101858
 30
0.0
 10
34.864023
 20
-17.940105
 30
0.0
  0
LWPOLYLINE
  5
121
100
AcDbEntity
  8
vent
 62
7
100
AcDbPolyline
 90
4
 70
1
 10
61.161128
 20
-13.953236
 30
0.0
 10
61.161128
 20
-22.929427
 30
0.0
 10
71.261803
 20
-20.887690
 30
0.0
 10
71.261803
 20
-15.987748
 30
0.0
  0
LWPOLYLINE
  5
122
100
AcDbEntity
  8
vent
 62
7
100
AcDbPolyline
 90
7
 70
1
 10
59.161251
 20
-18.750873
 30
0.0
 10
44.034521
 20
-21.809089
 30
0.0
 10
44.034521
 20
-30.496905
 30
0.0
 10
59.161251
 20
-30.496905
 30
0.0
 10
59.161251
 20
-25.085350
 30
0.0
 10
50.497698
 20
-25.085350
 30
0.0
 10
59.161251
 20
-23.334049
 30
0.0
  0
LWPOLYLINE
  5
123
100
AcDbEntity
  8
vent
 62
7
100
AcDbPolyline
 90
4
 70
1
 10
61.161128
 20
-25.085350
 30
0.0
 10
61.161128
 20
-30.496905
 30
0.0
 10
71.261803
 20
-30.496905
 30
0.0
 10
71.261803
 20
-25.085350
 30
0.0
  0
LWPOLYLINE
  5
124
100
AcDbEntity
  8
vent
 62
7
100
AcDbPolyline
 90
9
 70
1
 10
34.864023
 20
-26.160222
 30
0.0
 10
24.915276
 20
-29.104759
 30
0.0
 10
24.915276
 20
-46.558990
 30
0.0
 10
34.689356
 20
-49.451853
 30
0.0
 10
34.864023
 20
-49.451853
 30
0.0
 10
34.864023
 20
-42.570626
 30
0.0
 10
30.369722
 20
-41.517429
 30
0.0
 10
30.369722
 20
-33.970609
 30
0.0
 10
34.864023
 20
-32.931918
 30
0.0
  0
LWPOLYLINE
  5
125
100
AcDbEntity
  8
vent
 62
7
100
AcDbPolyline
 90
7
 70
1
 10
22.915398
 20
-29.696974
 30
0.0
 10
7.636743
 20
-34.219162
 30
0.0
 10
7.636743
 20
-41.444587
 30
0.0
 10
22.915398
 20
-45.966775
 30
0.0
 10
22.915398
 20
-39.748545
 30
0.0
 10
14.694711
 20
-37.758511
 30
0.0
 10
22.915398
 20
-35.780811
 30
0.0
  0
LWPOLYLINE
  5
126
100
AcDbEntity
  8
rj45
 62
7
100
AcDbPolyline
 90
4
 70
1
 10
0.000000
 20
298.026667
 30
0.0
 10
9.811632
 20
298.026667
 30
0.0
 10
9.811632
 20
285.715455
 30
0.0
 10
0.000000
 20
285.715455
 30
0.0
  0
LWPOLYLINE
  5
127
100
AcDbEntity
  8
rj45
 62
7
100
AcDbPolyline
 90
4
 70
1
 10
-28.577063
 20
-13.859905
 30
0.0
 10
-19.378658
 20
-13.859905
 30
0.0
 10
-19.378658
 20
-25.401666
 30
0.0
 10
-28.577063
 20
-25.401666
 30
0.0
  0
LWPOLYLINE
  5
128
100
AcDbEntity
  8
insert
 62
7
100
AcDbPolyline
 90
4
 70
1
 10
-31.151587
 20
77.221021
 30
0.0
 10
-31.151587
 20
48.280667
 30
0.0
 10
-14.598592
 20
48.280667
 30
0.0
 10
-14.598592
 20
77.221021
 30
0.0
  0
LWPOLYLINE
  5
129
100
AcDbEntity
  8
insert
 62
7
100
AcDbPolyline
 90
4
 70
1
 10
-33.022791
 20
-12.544552
 30
0.0
 10
-33.022791
 20
-38.320754
 30
0.0
 10
-15.385108
 20
-38.320754
 30
0.0
 10
-15.385108
 20
-12.544552
 30
0.0
  0
LWPOLYLINE
  5
12a
100
AcDbEntity
  8
insert
 62
7
100
AcDbPolyline
 90
4
 70
0
 10
72.478262
 20
-36.713104
 30
0.0
 10
97.070045
 20
-36.713104
 30
0.0
 10
97.070045
 20
73.055384
 30
0.0
 10
72.478262
 20
73.055384
 30
0.0
  0
LWPOLYLINE
  5
12b
100
AcDbEntity
  8
circuit
 62
7
100
AcDbPolyline
 90
4
 70
1
 10
-33.123042
 20
50.544617
 30
0.0
 10
-33.123042
 20
4.652828
 30
0.0
 10
-12.627138
 20
4.652828
 30
0.0
 10
-12.627138
 20
50.544617
 30
0.0
  0
LWPOLYLINE
  5
12c
100
AcDbEntity
  8
circuit
 62
7
100
AcDbPolyline
 90
4
 70
1
 10
-49.308103
 20
3.446724
 30
0.0
 10
-49.308103
 20
-14.805914
 30
0.0
 10
-14.926219
 20
-14.805914
 30
0.0
 10
-14.926219
 20
3.446724
 30
0.0
  0
LWPOLYLINE
  5
12d
100
AcDbEntity
  8
Layer_1
 62
1
100
AcDbPolyline
 90
12
 70
1
 10
31.636725
 20
339.871830
 30
0.0
 10
11.881170
 20
339.871830
 30
0.0
 10
7.506725
 20
339.871830
 30
0.0
 10
7.506725
 20
338.659149
 30
0.0
 10
7.506725
 20
327.370260
 30
0.0
 10
7.506725
 20
323.335386
 30
0.0
 10
9.058947
 20
323.335386
 30
0.0
 10
28.814503
 20
323.335386
 30
0.0
 10
33.188947
 20
323.335386
 30
0.0
 10
33.188947
 20
324.548038
 30
0.0
 10
33.188947
 20
335.836927
 30
0.0
 10
33.188947
 20
339.871830
 30
0.0
  0
LWPOLYLINE
  5
12e
100
AcDbEntity
  8
Layer_1
 62
1
100
AcDbPolyline
 90
3
 70
0
 10
7.489058
 20
339.978792
 30
0.0
 10
7.489058
 20
339.978792
 30
0.0
 10
7.489086
 20
339.978228
 30
0.0
  0
LWPOLYLINE
  5
12f
100
AcDbEntity
  8
Layer_1
 62
1
100
AcDbPolyline
 90
28
 70
0
 10
7.489086
 20
339.978341
 30
0.0
 10
7.498146
 20
339.880381
 30
0.0
 10
7.498146
 20
339.880381
 30
0.0
 10
7.647836
 20
339.871830
 30
0.0
 10
30.225614
 20
339.871830
 30
0.0
 10
33.188947
 20
339.871830
 30
0.0
 10
33.263765
 20
339.946647
 30
0.0
 10
33.263765
 20
339.946647
 30
0.0
 10
33.188947
 20
339.871802
 30
0.0
 10
33.188947
 20
338.659149
 30
0.0
 10
33.188947
 20
327.370260
 30
0.0
 10
33.188947
 20
323.335386
 30
0.0
 10
33.263765
 20
323.260569
 30
0.0
 10
33.263765
 20
323.260569
 30
0.0
 10
33.188919
 20
323.335358
 30
0.0
 10
33.047836
 20
323.335386
 30
0.0
 10
10.470059
 20
323.335386
 30
0.0
 10
7.506725
 20
323.335358
 30
0.0
 10
7.431908
 20
323.260569
 30
0.0
 10
7.431908
 20
323.260569
 30
0.0
 10
7.506725
 20
323.335414
 30
0.0
 10
7.506725
 20
324.548038
 30
0.0
 10
7.506725
 20
335.836927
 30
0.0
 10
7.505766
 20
339.872790
 30
0.0
 10
7.428070
 20
339.873354
 30
0.0
 10
7.427647
 20
339.944079
 30
0.0
 10
7.427647
 20
339.944079
 30
0.0
 10
7.489058
 20
339.978792
 30
0.0
  0
LWPOLYLINE
  5
130
100
AcDbEntity
  8
Layer_1
 62
7
100
AcDbPolyline
 90
4
 70
1
 10
0.310059
 20
298.155858
 30
0.0
 10
0.310059
 20
298.155858
 30
0.0
 10
0.310059
 20
298.155858
 30
0.0
 10
0.310059
 20
298.155858
 30
0.0
  0
LWPOLYLINE
  5
131
100
AcDbEntity
  8
sensors
 62
7
100
AcDbPolyline
 90
9
 70
1
 10
-59.895568
 20
123.729295
 30
0.0
 10
-59.895568
 20
-33.167585
 30
0.0
 10
-20.083012
 20
-33.167585
 30
0.0
 10
-20.083012
 20
24.899144
 30
0.0
 10
-33.965883
 20
39.186652
 30
0.0
 10
-44.776078
 20
39.186652
 30
0.0
 10
-44.776078
 20
53.235408
 30
0.0
 10
-12.955798
 20
53.235408
 30
0.0
 10
-12.955798
 20
123.729295
 30
0.0
  0
ENDSEC
  0
SECTION
  2
OBJECTS
  0
DICTIONARY
  5
C
330
0
100
AcDbDictionary
  3
ACAD_GROUP
350
D
  3
ACAD_MLINESTYLE
350
17
  0
DICTIONARY
  5
D
330
C
100
AcDbDictionary
  0
DICTIONARY
  5
1A
330
C
100
AcDbDictionary
  0
DICTIONARY
  5
17
330
C
100
AcDbDictionary
  3
STANDARD
350
18
  0
DICTIONARY
  5
19
330
C
100
AcDbDictionary
  0
ENDSEC
  0
EOF
