  0
SECTION
  2
HEADER
  9
$ACADVER
  1
AC1014
  9
$HANDSEED
  5
FFFF
  9
$MEASUREMENT
 70
     1
  0
ENDSEC
  0
SECTION
  2
TABLES
  0
TABLE
  2
VPORT
  5
8
330
0
100
AcDbSymbolTable
 70
     4
  0
VPORT
  5
2E
330
8
100
AcDbSymbolTableRecord
100
AcDbViewportTableRecord
  2
*ACTIVE
 70
     0
 10
0.0
 20
0.0
 11
1.0
 21
1.0
 12
210.0
 22
148.5
 13
0.0
 23
0.0
 14
10.0
 24
10.0
 15
10.0
 25
10.0
 16
0.0
 26
0.0
 36
1.0
 17
0.0
 27
0.0
 37
0.0
 40
341.0
 41
1.24
 42
50.0
 43
0.0
 44
0.0
 50
0.0
 51
0.0
 71
     0
 72
   100
 73
     1
 74
     3
 75
     0
 76
     0
 77
     0
 78
     0
  0
ENDTAB
  0
TABLE
  2
LTYPE
  5
5
330
0
100
AcDbSymbolTable
 70
     1
  0
LTYPE
  5
14
330
5
100
AcDbSymbolTableRecord
100
AcDbLinetypeTableRecord
  2
BYBLOCK
 70
     0
  3

 72
    65
 73
     0
 40
0.0
  0
LTYPE
  5
15
330
5
100
AcDbSymbolTableRecord
100
AcDbLinetypeTableRecord
  2
BYLAYER
 70
     0
  3

 72
    65
 73
     0
 40
0.0
  0
LTYPE
  5
16
330
5
100
AcDbSymbolTableRecord
100
AcDbLinetypeTableRecord
  2
CONTINUOUS
 70
     0
  3
Solid line
 72
    65
 73
     0
 40
0.0
  0
ENDTAB
  0
TABLE
  2
LAYER
  5
2
100
AcDbSymbolTable
 70
6
  0
LAYER
  5
50
100
AcDbSymbolTableRecord
100
AcDbLayerTableRecord
  2
0
 70
0
  6
CONTINUOUS
  0
LAYER
  5
51
100
AcDbSymbolTableRecord
100
AcDbLayerTableRecord
  2
Layer_1
 70
0
  6
CONTINUOUS
  0
LAYER
  5
52
100
AcDbSymbolTableRecord
100
AcDbLayerTableRecord
  2
body
 70
0
  6
CONTINUOUS
  0
LAYER
  5
53
100
AcDbSymbolTableRecord
100
AcDbLayerTableRecord
  2
bodySlot
 70
0
  6
CONTINUOUS
  0
LAYER
  5
54
100
AcDbSymbolTableRecord
100
AcDbLayerTableRecord
  2
thumb
 70
0
  6
CONTINUOUS
  0
LAYER
  5
55
100
AcDbSymbolTableRecord
100
AcDbLayerTableRecord
  2
holes
 70
0
  6
CONTINUOUS
  0
ENDTAB
  0
TABLE
  2
STYLE
  5
3
330
0
100
AcDbSymbolTable
 70
     1
  0
STYLE
  5
11
330
3
100
AcDbSymbolTableRecord
100
AcDbTextStyleTableRecord
  2
STANDARD
 70
     0
 40
0.0
 41
1.0
 50
0.0
 71
     0
 42
2.5
  3
txt
  4

  0
ENDTAB
  0
TABLE
  2
VIEW
  5
6
330
0
100
AcDbSymbolTable
 70
     0
  0
ENDTAB
  0
TABLE
  2
UCS
  5
7
330
0
100
AcDbSymbolTable
 70
     0
  0
ENDTAB
  0
TABLE
  2
APPID
  5
9
330
0
100
AcDbSymbolTable
 70
     2
  0
APPID
  5
12
330
9
100
AcDbSymbolTableRecord
100
AcDbRegAppTableRecord
  2
ACAD
 70
     0
  0
ENDTAB
  0
TABLE
  2
DIMSTYLE
  5
A
330
0
100
AcDbSymbolTable
 70
     1
  0
DIMSTYLE
105
27
330
A
100
AcDbSymbolTableRecord
100
AcDbDimStyleTableRecord
  2
ISO-25
 70
     0
  3

  4

  5

  6

  7

 40
1.0
 41
2.5
 42
0.625
 43
3.75
 44
1.25
 45
0.0
 46
0.0
 47
0.0
 48
0.0
140
2.5
141
2.5
142
0.0
143
0.03937007874016
144
1.0
145
0.0
146
1.0
147
0.625
 71
     0
 72
     0
 73
     0
 74
     0
 75
     0
 76
     0
 77
     1
 78
     8
170
     0
171
     3
172
     1
173
     0
174
     0
175
     0
176
     0
177
     0
178
     0
270
     2
271
     2
272
     2
273
     2
274
     3
340
11
275
     0
280
     0
281
     0
282
     0
283
     0
284
     8
285
     0
286
     0
287
     3
288
     0
  0
ENDTAB
  0
TABLE
  2
BLOCK_RECORD
  5
1
330
0
100
AcDbSymbolTable
 70
     1
  0
BLOCK_RECORD
  5
1F
330
1
100
AcDbSymbolTableRecord
100
AcDbBlockTableRecord
  2
*MODEL_SPACE
  0
BLOCK_RECORD
  5
1B
330
1
100
AcDbSymbolTableRecord
100
AcDbBlockTableRecord
  2
*PAPER_SPACE
  0
ENDTAB
  0
ENDSEC
  0
SECTION
  2
BLOCKS
  0
BLOCK
  5
20
330
1F
100
AcDbEntity
  8
0
100
AcDbBlockBegin
  2
*MODEL_SPACE
 70
     0
 10
0.0
 20
0.0
 30
0.0
  3
*MODEL_SPACE
  1

  0
ENDBLK
  5
21
330
1F
100
AcDbEntity
  8
0
100
AcDbBlockEnd
  0
BLOCK
  5
1C
330
1B
100
AcDbEntity
 67
     1
  8
0
100
AcDbBlockBegin
  2
*PAPER_SPACE
  1

  0
ENDBLK
  5
1D
330
1B
100
AcDbEntity
 67
     1
  8
0
100
AcDbBlockEnd
  0
ENDSEC
  0
SECTION
  2
ENTITIES
  0
SPLINE
  5
100
100
AcDbEntity
  8
Layer_1
 62
7
100
AcDbSpline
 70
8
 71
3
 72
8
 73
4
 74
0
 40
0
 40
0
 40
0
 40
0
 40
1
 40
1
 40
1
 40
1
 10
4.000000
 20
0.000000
 30
0.0
 10
4.000000
 20
-1.429062
 30
0.0
 10
3.237604
 20
-2.749570
 30
0.0
 10
2.000000
 20
-3.464102
 30
0.0
  0
SPLINE
  5
101
100
AcDbEntity
  8
Layer_1
 62
7
100
AcDbSpline
 70
8
 71
3
 72
8
 73
4
 74
0
 40
0
 40
0
 40
0
 40
0
 40
1
 40
1
 40
1
 40
1
 10
2.000000
 20
-3.464102
 30
0.0
 10
0.762396
 20
-4.178633
 30
0.0
 10
-0.762396
 20
-4.178633
 30
0.0
 10
-2.000000
 20
-3.464102
 30
0.0
  0
SPLINE
  5
102
100
AcDbEntity
  8
Layer_1
 62
7
100
AcDbSpline
 70
8
 71
3
 72
8
 73
4
 74
0
 40
0
 40
0
 40
0
 40
0
 40
1
 40
1
 40
1
 40
1
 10
-2.000000
 20
-3.464102
 30
0.0
 10
-3.237604
 20
-2.749570
 30
0.0
 10
-4.000000
 20
-1.429062
 30
0.0
 10
-4.000000
 20
0.000000
 30
0.0
  0
SPLINE
  5
103
100
AcDbEntity
  8
Layer_1
 62
7
100
AcDbSpline
 70
8
 71
3
 72
8
 73
4
 74
0
 40
0
 40
0
 40
0
 40
0
 40
1
 40
1
 40
1
 40
1
 10
-4.000000
 20
0.000000
 30
0.0
 10
-4.000000
 20
1.429062
 30
0.0
 10
-3.237604
 20
2.749570
 30
0.0
 10
-2.000000
 20
3.464102
 30
0.0
  0
SPLINE
  5
104
100
AcDbEntity
  8
Layer_1
 62
7
100
AcDbSpline
 70
8
 71
3
 72
8
 73
4
 74
0
 40
0
 40
0
 40
0
 40
0
 40
1
 40
1
 40
1
 40
1
 10
-2.000000
 20
3.464102
 30
0.0
 10
-0.762396
 20
4.178633
 30
0.0
 10
0.762396
 20
4.178633
 30
0.0
 10
2.000000
 20
3.464102
 30
0.0
  0
SPLINE
  5
105
100
AcDbEntity
  8
Layer_1
 62
7
100
AcDbSpline
 70
8
 71
3
 72
8
 73
4
 74
0
 40
0
 40
0
 40
0
 40
0
 40
1
 40
1
 40
1
 40
1
 10
2.000000
 20
3.464102
 30
0.0
 10
3.237604
 20
2.749570
 30
0.0
 10
4.000000
 20
1.429062
 30
0.0
 10
4.000000
 20
0.000000
 30
0.0
  0
LWPOLYLINE
  5
106
100
AcDbEntity
  8
Layer_1
 62
7
100
AcDbPolyline
 90
54
 70
1
 10
85.500858
 20
39.424857
 30
0.0
 10
85.741296
 20
39.665295
 30
0.0
 10
85.744290
 20
39.662302
 30
0.0
 10
85.747283
 20
39.659308
 30
0.0
 10
85.750277
 20
39.656315
 30
0.0
 10
85.753270
 20
39.653321
 30
0.0
 10
87.060831
 20
40.388354
 30
0.0
 10
88.499726
 20
40.590967
 30
0.0
 10
89.916390
 20
40.267669
 30
0.0
 10
91.157276
 20
39.424948
 30
0.0
 10
92.000227
 20
38.184031
 30
0.0
 10
92.323662
 20
36.767280
 30
0.0
 10
92.121086
 20
35.328272
 30
0.0
 10
91.386023
 20
34.020568
 30
0.0
 10
91.389017
 20
34.017575
 30
0.0
 10
91.392010
 20
34.014581
 30
0.0
 10
91.395004
 20
34.011588
 30
0.0
 10
91.397997
 20
34.008594
 30
0.0
 10
91.157559
 20
33.768156
 30
0.0
 10
83.853453
 20
26.464050
 30
0.0
 10
83.623642
 20
24.331510
 30
0.0
 10
92.080854
 20
15.874298
 30
0.0
 10
94.374253
 20
15.943250
 30
0.0
 10
113.270736
 20
34.839733
 30
0.0
 10
113.180077
 20
36.865945
 30
0.0
 10
12.083895
 20
137.962128
 30
0.0
 10
10.285449
 20
138.288609
 30
0.0
 10
3.927296
 20
131.941045
 30
0.0
 10
3.927296
 20
125.245916
 30
0.0
 10
3.892895
 20
124.393313
 30
0.0
 10
3.681689
 20
123.576205
 30
0.0
 10
3.303791
 20
122.821574
 30
0.0
 10
2.769309
 20
122.156406
 30
0.0
 10
1.446024
 20
121.277805
 30
0.0
 10
-0.059205
 20
120.985005
 30
0.0
 10
-1.564397
 20
121.278000
 30
0.0
 10
-2.887568
 20
122.156774
 30
0.0
 10
-3.346681
 20
122.709117
 30
0.0
 10
-3.697274
 20
123.329522
 30
0.0
 10
-3.932231
 20
124.002282
 30
0.0
 10
-4.050601
 20
124.591268
 30
0.0
 10
-4.326745
 20
129.112643
 30
0.0
 10
-7.919281
 20
139.466250
 30
0.0
 10
-10.002064
 20
139.368388
 30
0.0
 10
-12.602726
 20
132.709248
 30
0.0
 10
-13.717446
 20
128.566760
 30
0.0
 10
-13.707269
 20
124.752834
 30
0.0
 10
-12.571532
 20
121.306062
 30
0.0
 10
-10.309565
 20
118.265027
 30
0.0
 10
72.494154
 20
35.461308
 30
0.0
 10
74.858713
 20
34.167535
 30
0.0
 10
76.793857
 20
33.739862
 30
0.0
 10
78.378057
 20
33.999512
 30
0.0
 10
79.489461
 20
34.607273
 30
0.0
  0
SPLINE
  5
107
100
AcDbEntity
  8
Layer_1
 62
7
100
AcDbSpline
 70
8
 71
3
 72
8
 73
4
 74
0
 40
0
 40
0
 40
0
 40
0
 40
1
 40
1
 40
1
 40
1
 10
4.000000
 20
125.000000
 30
0.0
 10
4.000000
 20
123.570938
 30
0.0
 10
3.237604
 20
122.250430
 30
0.0
 10
2.000000
 20
121.535898
 30
0.0
  0
SPLINE
  5
108
100
AcDbEntity
  8
Layer_1
 62
7
100
AcDbSpline
 70
8
 71
3
 72
8
 73
4
 74
0
 40
0
 40
0
 40
0
 40
0
 40
1
 40
1
 40
1
 40
1
 10
2.000000
 20
121.535898
 30
0.0
 10
0.762396
 20
120.821367
 30
0.0
 10
-0.762396
 20
120.821367
 30
0.0
 10
-2.000000
 20
121.535898
 30
0.0
  0
SPLINE
  5
109
100
AcDbEntity
  8
Layer_1
 62
7
100
AcDbSpline
 70
8
 71
3
 72
8
 73
4
 74
0
 40
0
 40
0
 40
0
 40
0
 40
1
 40
1
 40
1
 40
1
 10
-2.000000
 20
121.535898
 30
0.0
 10
-3.237604
 20
122.250430
 30
0.0
 10
-4.000000
 20
123.570938
 30
0.0
 10
-4.000000
 20
125.000000
 30
0.0
  0
SPLINE
  5
10a
100
AcDbEntity
  8
Layer_1
 62
7
100
AcDbSpline
 70
8
 71
3
 72
8
 73
4
 74
0
 40
0
 40
0
 40
0
 40
0
 40
1
 40
1
 40
1
 40
1
 10
-4.000000
 20
125.000000
 30
0.0
 10
-4.000000
 20
126.429062
 30
0.0
 10
-3.237604
 20
127.749570
 30
0.0
 10
-2.000000
 20
128.464102
 30
0.0
  0
SPLINE
  5
10b
100
AcDbEntity
  8
Layer_1
 62
7
100
AcDbSpline
 70
8
 71
3
 72
8
 73
4
 74
0
 40
0
 40
0
 40
0
 40
0
 40
1
 40
1
 40
1
 40
1
 10
-2.000000
 20
128.464102
 30
0.0
 10
-0.762396
 20
129.178633
 30
0.0
 10
0.762396
 20
129.178633
 30
0.0
 10
2.000000
 20
128.464102
 30
0.0
  0
SPLINE
  5
10c
100
AcDbEntity
  8
Layer_1
 62
7
100
AcDbSpline
 70
8
 71
3
 72
8
 73
4
 74
0
 40
0
 40
0
 40
0
 40
0
 40
1
 40
1
 40
1
 40
1
 10
2.000000
 20
128.464102
 30
0.0
 10
3.237604
 20
127.749570
 30
0.0
 10
4.000000
 20
126.429062
 30
0.0
 10
4.000000
 20
125.000000
 30
0.0
  0
LWPOLYLINE
  5
10d
100
AcDbEntity
  8
Layer_1
 62
7
100
AcDbPolyline
 90
1
 70
1
 10
4.000000
 20
0.000000
 30
0.0
  0
LWPOLYLINE
  5
10e
100
AcDbEntity
  8
Layer_1
 62
7
100
AcDbPolyline
 90
1
 70
1
 10
4.000000
 20
125.000000
 30
0.0
  0
LWPOLYLINE
  5
10f
100
AcDbEntity
  8
Layer_1
 62
7
100
AcDbPolyline
 90
4
 70
1
 10
-15.000000
 20
140.000000
 30
0.0
 10
10.000000
 20
140.000000
 30
0.0
 10
10.000000
 20
-10.000000
 30
0.0
 10
-15.000000
 20
-10.000000
 30
0.0
  0
LWPOLYLINE
  5
110
100
AcDbEntity
  8
Layer_1
 62
7
100
AcDbPolyline
 90
36
 70
1
 10
15.850878
 20
58.663503
 30
0.0
 10
13.311074
 20
56.937209
 30
0.0
 10
-8.520351
 20
10.730652
 30
0.0
 10
-8.815126
 20
9.383519
 30
0.0
 10
-8.680503
 20
7.594574
 30
0.0
 10
-8.072255
 20
6.249690
 30
0.0
 10
-7.037858
 20
5.022369
 30
0.0
 10
-6.672619
 20
5.645402
 30
0.0
 10
-6.254889
 20
6.339616
 30
0.0
 10
-5.723402
 20
6.918953
 30
0.0
 10
-5.099719
 20
7.375281
 30
0.0
 10
-4.405188
 20
7.702124
 30
0.0
 10
-3.661118
 20
7.890674
 30
0.0
 10
-2.889538
 20
7.934222
 30
0.0
 10
-2.111086
 20
7.824171
 30
0.0
 10
-1.347529
 20
7.553159
 30
0.0
 10
0.404567
 20
6.728849
 30
0.0
 10
1.690488
 20
5.816658
 30
0.0
 10
2.230004
 20
4.737591
 30
0.0
 10
2.760346
 20
3.634268
 30
0.0
 10
4.020211
 20
2.646365
 30
0.0
 10
5.429015
 20
2.091033
 30
0.0
 10
6.710928
 20
1.805439
 30
0.0
 10
7.902222
 20
1.758692
 30
0.0
 10
9.038980
 20
1.918293
 30
0.0
 10
11.024057
 20
2.765313
 30
0.0
 10
12.764182
 20
4.273321
 30
0.0
 10
13.998157
 20
6.254809
 30
0.0
 10
14.463357
 20
8.524085
 30
0.0
 10
14.290222
 20
41.289415
 30
0.0
 10
15.583995
 20
44.789802
 30
0.0
 10
16.624422
 20
45.953981
 30
0.0
 10
20.121859
 20
47.917667
 30
0.0
 10
21.556791
 20
50.726094
 30
0.0
 10
21.480844
 20
53.680264
 30
0.0
 10
19.969147
 20
56.717813
 30
0.0
  0
LWPOLYLINE
  5
111
100
AcDbEntity
  8
Layer_1
 62
7
100
AcDbPolyline
 90
16
 70
1
 10
17.608162
 20
54.448567
 30
0.0
 10
18.356143
 20
53.890556
 30
0.0
 10
18.816282
 20
53.116470
 30
0.0
 10
18.952623
 20
52.225604
 30
0.0
 10
18.728685
 20
51.319783
 30
0.0
 10
18.171140
 20
50.571583
 30
0.0
 10
17.396588
 20
50.111665
 30
0.0
 10
16.506190
 20
49.975102
 30
0.0
 10
15.600368
 20
50.199039
 30
0.0
 10
14.852168
 20
50.756586
 30
0.0
 10
14.391781
 20
51.531360
 30
0.0
 10
14.255686
 20
52.421535
 30
0.0
 10
14.479157
 20
53.327577
 30
0.0
 10
15.036702
 20
54.075778
 30
0.0
 10
15.811476
 20
54.536165
 30
0.0
 10
16.702341
 20
54.672506
 30
0.0
  0
LWPOLYLINE
  5
112
100
AcDbEntity
  8
Layer_1
 62
7
100
AcDbPolyline
 90
28
 70
1
 10
8.872879
 20
31.116665
 30
0.0
 10
10.005600
 20
30.399175
 30
0.0
 10
10.629660
 20
29.509935
 30
0.0
 10
10.890165
 20
28.306058
 30
0.0
 10
10.933839
 20
26.645678
 30
0.0
 10
10.493271
 20
24.474501
 30
0.0
 10
10.052487
 20
22.302869
 30
0.0
 10
9.611918
 20
20.131692
 30
0.0
 10
9.171361
 20
17.960538
 30
0.0
 10
8.541574
 20
16.833229
 30
0.0
 10
7.364886
 20
16.037503
 30
0.0
 10
5.925784
 20
15.586373
 30
0.0
 10
4.509398
 20
15.495418
 30
0.0
 10
3.779616
 20
15.547593
 30
0.0
 10
3.050301
 20
15.599547
 30
0.0
 10
2.320519
 20
15.651722
 30
0.0
 10
1.590737
 20
15.703897
 30
0.0
 10
0.512398
 20
16.191730
 30
0.0
 10
-0.099493
 20
17.261566
 30
0.0
 10
-0.243615
 20
18.605316
 30
0.0
 10
0.082085
 20
19.914019
 30
0.0
 10
1.227150
 20
22.337568
 30
0.0
 10
2.372453
 20
24.761619
 30
0.0
 10
3.517518
 20
27.185168
 30
0.0
 10
4.662595
 20
29.608740
 30
0.0
 10
5.413591
 20
30.617593
 30
0.0
 10
6.454588
 20
31.237415
 30
0.0
 10
7.652334
 20
31.419645
 30
0.0
  0
LWPOLYLINE
  5
113
100
AcDbEntity
  8
Layer_1
 62
7
100
AcDbPolyline
 90
16
 70
1
 10
8.223598
 20
10.807418
 30
0.0
 10
8.971795
 20
10.249864
 30
0.0
 10
9.432181
 20
9.475091
 30
0.0
 10
9.568272
 20
8.584905
 30
0.0
 10
9.344805
 20
7.678870
 30
0.0
 10
8.787263
 20
6.930677
 30
0.0
 10
8.012492
 20
6.470295
 30
0.0
 10
7.121626
 20
6.333953
 30
0.0
 10
6.215801
 20
6.557883
 30
0.0
 10
5.467819
 20
7.115891
 30
0.0
 10
5.007685
 20
7.889990
 30
0.0
 10
4.871342
 20
8.780850
 30
0.0
 10
5.095276
 20
9.686665
 30
0.0
 10
5.652818
 20
10.434858
 30
0.0
 10
6.427374
 20
10.894786
 30
0.0
 10
7.317773
 20
11.031348
 30
0.0
  0
LWPOLYLINE
  5
114
100
AcDbEntity
  8
Layer_1
 62
7
100
AcDbPolyline
 90
4
 70
1
 10
-7.748513
 20
-8.948648
 30
0.0
 10
38.975940
 20
-8.948648
 30
0.0
 10
38.975940
 20
-13.774648
 30
0.0
 10
-7.748513
 20
-13.774648
 30
0.0
  0
LWPOLYLINE
  5
115
100
AcDbEntity
  8
Layer_1
 62
7
100
AcDbPolyline
 90
4
 70
1
 10
-10.205358
 20
-6.243538
 30
0.0
 10
-6.570191
 20
-6.243538
 30
0.0
 10
-6.570191
 20
-16.479738
 30
0.0
 10
-10.205358
 20
-16.479738
 30
0.0
  0
LWPOLYLINE
  5
116
100
AcDbEntity
  8
Layer_1
 62
7
100
AcDbPolyline
 90
4
 70
1
 10
-7.748513
 20
118.240343
 30
0.0
 10
38.975940
 20
118.240343
 30
0.0
 10
38.975940
 20
113.414343
 30
0.0
 10
-7.748513
 20
113.414343
 30
0.0
  0
LWPOLYLINE
  5
117
100
AcDbEntity
  8
Layer_1
 62
7
100
AcDbPolyline
 90
4
 70
1
 10
-10.205358
 20
120.945453
 30
0.0
 10
-6.570191
 20
120.945453
 30
0.0
 10
-6.570191
 20
110.709253
 30
0.0
 10
-10.205358
 20
110.709253
 30
0.0
  0
LWPOLYLINE
  5
118
100
AcDbEntity
  8
Layer_1
 62
7
100
AcDbPolyline
 90
4
 70
1
 10
22.177999
 20
116.016463
 30
0.0
 10
41.688674
 20
116.016463
 30
0.0
 10
41.688674
 20
-11.471097
 30
0.0
 10
22.177999
 20
-11.471097
 30
0.0
  0
LWPOLYLINE
  5
119
100
AcDbEntity
  8
Layer_1
 62
7
100
AcDbPolyline
 90
4
 70
1
 10
-7.483547
 20
54.772693
 30
0.0
 10
76.439083
 20
54.772693
 30
0.0
 10
76.439083
 20
49.772693
 30
0.0
 10
-7.483547
 20
49.772693
 30
0.0
  0
LWPOLYLINE
  5
11a
100
AcDbEntity
  8
body
 62
7
100
AcDbPolyline
 90
54
 70
1
 10
0.000000
 20
3.999812
 30
0.0
 10
0.340031
 20
3.999812
 30
0.0
 10
0.340031
 20
3.995578
 30
0.0
 10
0.340031
 20
3.991345
 30
0.0
 10
0.340031
 20
3.987112
 30
0.0
 10
0.340031
 20
3.982878
 30
0.0
 10
1.784363
 20
3.578040
 30
0.0
 10
2.945084
 20
2.703856
 30
0.0
 10
3.718211
 20
1.473517
 30
0.0
 10
3.999756
 20
0.000185
 30
0.0
 10
3.718351
 20
-1.473332
 30
0.0
 10
2.945260
 20
-2.703830
 30
0.0
 10
1.784485
 20
-3.578119
 30
0.0
 10
0.340031
 20
-3.983038
 30
0.0
 10
0.340031
 20
-3.987271
 30
0.0
 10
0.340031
 20
-3.991504
 30
0.0
 10
0.340031
 20
-3.995738
 30
0.0
 10
0.340031
 20
-3.999971
 30
0.0
 10
0.000000
 20
-3.999971
 30
0.0
 10
-10.329566
 20
-3.999971
 30
0.0
 10
-12.000000
 20
-5.345404
 30
0.0
 10
-12.000000
 20
-17.305708
 30
0.0
 10
-10.329566
 20
-18.878629
 30
0.0
 10
16.394097
 20
-18.878629
 30
0.0
 10
17.762740
 20
-17.381776
 30
0.0
 10
17.762740
 20
125.589817
 30
0.0
 10
16.721904
 20
127.092367
 30
0.0
 10
7.737605
 20
127.099855
 30
0.0
 10
3.003434
 20
122.365684
 30
0.0
 10
2.376227
 20
121.787127
 30
0.0
 10
1.649100
 20
121.358690
 30
0.0
 10
0.848281
 20
121.092300
 30
0.0
 10
0.000000
 20
120.999891
 30
0.0
 10
-1.556969
 20
121.314330
 30
0.0
 10
-2.828367
 20
122.171646
 30
0.0
 10
-3.685520
 20
123.443157
 30
0.0
 10
-3.999756
 20
125.000166
 30
0.0
 10
-3.933832
 20
125.715375
 30
0.0
 10
-3.743046
 20
126.401974
 30
0.0
 10
-3.433473
 20
127.043826
 30
0.0
 10
-3.100698
 20
127.544003
 30
0.0
 10
-0.098866
 20
130.936360
 30
0.0
 10
4.681934
 20
140.797773
 30
0.0
 10
3.139985
 20
142.201324
 30
0.0
 10
-3.407684
 20
139.331547
 30
0.0
 10
-7.125092
 20
137.190592
 30
0.0
 10
-9.814749
 20
134.486542
 30
0.0
 10
-11.448897
 20
131.246219
 30
0.0
 10
-11.999782
 20
127.496431
 30
0.0
 10
-11.999782
 20
10.394288
 30
0.0
 10
-11.242621
 20
7.807457
 30
0.0
 10
-10.176678
 20
6.136693
 30
0.0
 10
-8.872879
 20
5.200094
 30
0.0
 10
-7.657246
 20
4.843965
 30
0.0
  0
LWPOLYLINE
  5
11b
100
AcDbEntity
  8
bodySlot
 62
7
100
AcDbPolyline
 90
12
 70
1
 10
-3.641552
 20
110.237758
 30
0.0
 10
-7.205917
 20
108.152582
 30
0.0
 10
-8.787503
 20
104.129346
 30
0.0
 10
-8.787503
 20
76.906807
 30
0.0
 10
-6.929249
 20
73.398940
 30
0.0
 10
-3.641552
 20
71.694891
 30
0.0
 10
15.789971
 20
71.694891
 30
0.0
 10
19.170882
 20
73.577756
 30
0.0
 10
21.055045
 20
76.906807
 30
0.0
 10
21.055045
 20
104.129346
 30
0.0
 10
19.179701
 20
107.892785
 30
0.0
 10
15.789971
 20
110.237758
 30
0.0
  0
LWPOLYLINE
  5
11c
100
AcDbEntity
  8
bodySlot
 62
7
100
AcDbPolyline
 90
17
 70
1
 10
-9.316670
 20
63.516493
 30
0.0
 10
-9.316670
 20
1.887379
 30
0.0
 10
4.621144
 20
1.887379
 30
0.0
 10
6.836783
 20
1.313603
 30
0.0
 10
9.679560
 20
-0.958665
 30
0.0
 10
11.352982
 20
-4.748239
 30
0.0
 10
12.900338
 20
-5.869940
 30
0.0
 10
16.058678
 20
-5.808425
 30
0.0
 10
18.314970
 20
-3.015324
 30
0.0
 10
20.129004
 20
0.777769
 30
0.0
 10
21.055045
 20
21.047524
 30
0.0
 10
21.956282
 20
41.036816
 30
0.0
 10
21.956282
 20
63.572659
 30
0.0
 10
19.282601
 20
67.080592
 30
0.0
 10
15.234212
 20
68.851139
 30
0.0
 10
-3.641552
 20
68.851139
 30
0.0
 10
-6.905195
 20
67.149243
 30
0.0
  0
LWPOLYLINE
  5
11d
100
AcDbEntity
  8
thumb
 62
7
100
AcDbPolyline
 90
36
 70
1
 10
-6.283854
 20
57.558804
 30
0.0
 10
-7.842784
 20
54.912971
 30
0.0
 10
-7.842784
 20
3.808597
 30
0.0
 10
-7.533823
 20
2.464646
 30
0.0
 10
-6.647878
 20
0.904663
 30
0.0
 10
-5.523398
 20
-0.051488
 30
0.0
 10
-4.063835
 20
-0.719296
 30
0.0
 10
-3.999756
 20
0.000053
 30
0.0
 10
-3.918624
 20
0.806185
 30
0.0
 10
-3.685563
 20
1.557046
 30
0.0
 10
-3.316593
 20
2.236073
 30
0.0
 10
-2.828251
 20
2.828290
 30
0.0
 10
-2.236039
 20
3.316631
 30
0.0
 10
-1.557011
 20
3.685619
 30
0.0
 10
-0.806152
 20
3.918664
 30
0.0
 10
0.000000
 20
3.999812
 30
0.0
 10
1.936316
 20
4.002987
 30
0.0
 10
3.488676
 20
3.727556
 30
0.0
 10
4.437455
 20
2.982383
 30
0.0
 10
5.388301
 20
2.211361
 30
0.0
 10
6.949447
 20
1.856343
 30
0.0
 10
8.460465
 20
1.956064
 30
0.0
 10
9.741524
 20
2.245466
 30
0.0
 10
10.838615
 20
2.712111
 30
0.0
 10
11.798246
 20
3.342031
 30
0.0
 10
13.231233
 20
4.955884
 30
0.0
 10
14.160376
 20
7.062734
 30
0.0
 10
14.429610
 20
9.381463
 30
0.0
 10
13.880806
 20
11.631983
 30
0.0
 10
-0.272852
 20
41.183139
 30
0.0
 10
-0.598413
 20
44.900741
 30
0.0
 10
-0.155029
 20
46.397809
 30
0.0
 10
2.168343
 20
49.667376
 30
0.0
 10
2.266012
 20
52.819638
 30
0.0
 10
0.935343
 20
55.458237
 30
0.0
 10
-1.729093
 20
57.558883
 30
0.0
  0
LWPOLYLINE
  5
11e
100
AcDbEntity
  8
thumb
 62
7
100
AcDbPolyline
 90
16
 70
1
 10
-2.894397
 20
54.498525
 30
0.0
 10
-1.979724
 20
54.313526
 30
0.0
 10
-1.233000
 20
53.810195
 30
0.0
 10
-0.729154
 20
53.062954
 30
0.0
 10
-0.544670
 20
52.148281
 30
0.0
 10
-0.729154
 20
51.233609
 30
0.0
 10
-1.233000
 20
50.486886
 30
0.0
 10
-1.979724
 20
49.983040
 30
0.0
 10
-2.894397
 20
49.798554
 30
0.0
 10
-3.809070
 20
49.983040
 30
0.0
 10
-4.556311
 20
50.486886
 30
0.0
 10
-5.059639
 20
51.233609
 30
0.0
 10
-5.244641
 20
52.148281
 30
0.0
 10
-5.060156
 20
53.062954
 30
0.0
 10
-4.556311
 20
53.810195
 30
0.0
 10
-3.809070
 20
54.314041
 30
0.0
  0
LWPOLYLINE
  5
11f
100
AcDbEntity
  8
thumb
 62
7
100
AcDbPolyline
 90
28
 70
1
 10
-0.825273
 20
29.671089
 30
0.0
 10
0.505396
 20
29.506253
 30
0.0
 10
1.449524
 20
28.968832
 30
0.0
 10
2.199349
 20
27.991620
 30
0.0
 10
2.948140
 20
26.509027
 30
0.0
 10
3.477307
 20
24.357726
 30
0.0
 10
4.006474
 20
22.205923
 30
0.0
 10
4.535640
 20
20.054622
 30
0.0
 10
5.064807
 20
17.903348
 30
0.0
 10
4.976957
 20
16.615039
 30
0.0
 10
4.252970
 20
15.392902
 30
0.0
 10
3.144511
 20
14.370235
 30
0.0
 10
1.902726
 20
13.682927
 30
0.0
 10
1.220597
 20
13.418343
 30
0.0
 10
0.538985
 20
13.153760
 30
0.0
 10
-0.143144
 20
12.889177
 30
0.0
 10
-0.825273
 20
12.624593
 30
0.0
 10
-2.008663
 20
12.605014
 30
0.0
 10
-3.018937
 20
13.310923
 30
0.0
 10
-3.723287
 20
14.464321
 30
0.0
 10
-3.987870
 20
15.786735
 30
0.0
 10
-3.987870
 20
18.467175
 30
0.0
 10
-3.987870
 20
21.148172
 30
0.0
 10
-3.987870
 20
23.828613
 30
0.0
 10
-3.987870
 20
26.509080
 30
0.0
 10
-3.739823
 20
27.742065
 30
0.0
 10
-3.063379
 20
28.747190
 30
0.0
 10
-2.058272
 20
29.423624
 30
0.0
  0
SPLINE
  5
120
100
AcDbEntity
  8
holes
 62
7
100
AcDbSpline
 70
8
 71
3
 72
8
 73
4
 74
0
 40
0
 40
0
 40
0
 40
0
 40
1
 40
1
 40
1
 40
1
 10
-0.544418
 20
52.148380
 30
0.0
 10
-0.544418
 20
51.308806
 30
0.0
 10
-0.992325
 20
50.533007
 30
0.0
 10
-1.719418
 20
50.113220
 30
0.0
  0
SPLINE
  5
121
100
AcDbEntity
  8
holes
 62
7
100
AcDbSpline
 70
8
 71
3
 72
8
 73
4
 74
0
 40
0
 40
0
 40
0
 40
0
 40
1
 40
1
 40
1
 40
1
 10
-1.719418
 20
50.113220
 30
0.0
 10
-2.446510
 20
49.693433
 30
0.0
 10
-3.342325
 20
49.693433
 30
0.0
 10
-4.069418
 20
50.113220
 30
0.0
  0
SPLINE
  5
122
100
AcDbEntity
  8
holes
 62
7
100
AcDbSpline
 70
8
 71
3
 72
8
 73
4
 74
0
 40
0
 40
0
 40
0
 40
0
 40
1
 40
1
 40
1
 40
1
 10
-4.069418
 20
50.113220
 30
0.0
 10
-4.796510
 20
50.533007
 30
0.0
 10
-5.244418
 20
51.308806
 30
0.0
 10
-5.244418
 20
52.148380
 30
0.0
  0
SPLINE
  5
123
100
AcDbEntity
  8
holes
 62
7
100
AcDbSpline
 70
8
 71
3
 72
8
 73
4
 74
0
 40
0
 40
0
 40
0
 40
0
 40
1
 40
1
 40
1
 40
1
 10
-5.244418
 20
52.148380
 30
0.0
 10
-5.244418
 20
52.987954
 30
0.0
 10
-4.796510
 20
53.763753
 30
0.0
 10
-4.069418
 20
54.183540
 30
0.0
  0
SPLINE
  5
124
100
AcDbEntity
  8
holes
 62
7
100
AcDbSpline
 70
8
 71
3
 72
8
 73
4
 74
0
 40
0
 40
0
 40
0
 40
0
 40
1
 40
1
 40
1
 40
1
 10
-4.069418
 20
54.183540
 30
0.0
 10
-3.342325
 20
54.603327
 30
0.0
 10
-2.446510
 20
54.603327
 30
0.0
 10
-1.719418
 20
54.183540
 30
0.0
  0
SPLINE
  5
125
100
AcDbEntity
  8
holes
 62
7
100
AcDbSpline
 70
8
 71
3
 72
8
 73
4
 74
0
 40
0
 40
0
 40
0
 40
0
 40
1
 40
1
 40
1
 40
1
 10
-1.719418
 20
54.183540
 30
0.0
 10
-0.992325
 20
53.763753
 30
0.0
 10
-0.544418
 20
52.987954
 30
0.0
 10
-0.544418
 20
52.148380
 30
0.0
  0
LWPOLYLINE
  5
126
100
AcDbEntity
  8
thumb
 62
7
100
AcDbPolyline
 90
16
 70
1
 10
7.263639
 20
11.030902
 30
0.0
 10
8.178312
 20
10.846408
 30
0.0
 10
8.925553
 20
10.342562
 30
0.0
 10
9.428882
 20
9.595829
 30
0.0
 10
9.613883
 20
8.681164
 30
0.0
 10
9.429399
 20
7.766499
 30
0.0
 10
8.925553
 20
7.019263
 30
0.0
 10
8.178312
 20
6.515417
 30
0.0
 10
7.263639
 20
6.330923
 30
0.0
 10
6.348966
 20
6.515920
 30
0.0
 10
5.602242
 20
7.019263
 30
0.0
 10
5.098397
 20
7.766499
 30
0.0
 10
4.913912
 20
8.681164
 30
0.0
 10
5.098397
 20
9.595829
 30
0.0
 10
5.602242
 20
10.342562
 30
0.0
 10
6.348966
 20
10.846408
 30
0.0
  0
SPLINE
  5
127
100
AcDbEntity
  8
holes
 62
7
100
AcDbSpline
 70
8
 71
3
 72
8
 73
4
 74
0
 40
0
 40
0
 40
0
 40
0
 40
1
 40
1
 40
1
 40
1
 10
9.613692
 20
8.681120
 30
0.0
 10
9.613692
 20
7.383251
 30
0.0
 10
8.561561
 20
6.331120
 30
0.0
 10
7.263692
 20
6.331120
 30
0.0
  0
SPLINE
  5
128
100
AcDbEntity
  8
holes
 62
7
100
AcDbSpline
 70
8
 71
3
 72
8
 73
4
 74
0
 40
0
 40
0
 40
0
 40
0
 40
1
 40
1
 40
1
 40
1
 10
7.263692
 20
6.331120
 30
0.0
 10
5.965823
 20
6.331120
 30
0.0
 10
4.913693
 20
7.383251
 30
0.0
 10
4.913693
 20
8.681120
 30
0.0
  0
SPLINE
  5
129
100
AcDbEntity
  8
holes
 62
7
100
AcDbSpline
 70
8
 71
3
 72
8
 73
4
 74
0
 40
0
 40
0
 40
0
 40
0
 40
1
 40
1
 40
1
 40
1
 10
4.913693
 20
8.681120
 30
0.0
 10
4.913693
 20
9.520694
 30
0.0
 10
5.361600
 20
10.296493
 30
0.0
 10
6.088692
 20
10.716280
 30
0.0
  0
SPLINE
  5
12a
100
AcDbEntity
  8
holes
 62
7
100
AcDbSpline
 70
8
 71
3
 72
8
 73
4
 74
0
 40
0
 40
0
 40
0
 40
0
 40
1
 40
1
 40
1
 40
1
 10
6.088692
 20
10.716280
 30
0.0
 10
6.815785
 20
11.136067
 30
0.0
 10
7.711600
 20
11.136067
 30
0.0
 10
8.438692
 20
10.716280
 30
0.0
  0
SPLINE
  5
12b
100
AcDbEntity
  8
holes
 62
7
100
AcDbSpline
 70
8
 71
3
 72
8
 73
4
 74
0
 40
0
 40
0
 40
0
 40
0
 40
1
 40
1
 40
1
 40
1
 10
8.438692
 20
10.716280
 30
0.0
 10
9.165785
 20
10.296493
 30
0.0
 10
9.613692
 20
9.520694
 30
0.0
 10
9.613692
 20
8.681120
 30
0.0
  0
LWPOLYLINE
  5
12c
100
AcDbEntity
  8
holes
 62
7
100
AcDbPolyline
 90
1
 70
1
 10
-0.544418
 20
52.148380
 30
0.0
  0
LWPOLYLINE
  5
12d
100
AcDbEntity
  8
holes
 62
7
100
AcDbPolyline
 90
1
 70
1
 10
9.613692
 20
8.681120
 30
0.0
  0
SPLINE
  5
12e
100
AcDbEntity
  8
holes
 62
7
100
AcDbSpline
 70
8
 71
3
 72
8
 73
4
 74
0
 40
0
 40
0
 40
0
 40
0
 40
1
 40
1
 40
1
 40
1
 10
-1.272388
 20
29.671140
 30
0.0
 10
0.479509
 20
29.671140
 30
0.0
 10
1.471445
 20
28.210070
 30
0.0
 10
1.889882
 20
26.508870
 30
0.0
  0
LWPOLYLINE
  5
12f
100
AcDbEntity
  8
holes
 62
7
100
AcDbPolyline
 90
2
 70
0
 10
-1.883712
 20
29.671140
 30
0.0
 10
-1.272388
 20
29.671140
 30
0.0
  0
SPLINE
  5
130
100
AcDbEntity
  8
holes
 62
7
100
AcDbSpline
 70
8
 71
3
 72
8
 73
4
 74
0
 40
0
 40
0
 40
0
 40
0
 40
1
 40
1
 40
1
 40
1
 10
4.006548
 20
17.903350
 30
0.0
 10
4.424982
 20
16.202160
 30
0.0
 10
2.477571
 20
14.316400
 30
0.0
 10
0.844279
 20
13.682760
 30
0.0
  0
LWPOLYLINE
  5
131
100
AcDbEntity
  8
holes
 62
7
100
AcDbPolyline
 90
2
 70
0
 10
1.889882
 20
26.508870
 30
0.0
 10
4.006548
 20
17.903350
 30
0.0
  0
SPLINE
  5
132
100
AcDbEntity
  8
holes
 62
7
100
AcDbSpline
 70
8
 71
3
 72
8
 73
4
 74
0
 40
0
 40
0
 40
0
 40
0
 40
1
 40
1
 40
1
 40
1
 10
-1.883712
 20
12.624420
 30
0.0
 10
-3.517004
 20
11.990780
 30
0.0
 10
-5.045982
 20
14.034790
 30
0.0
 10
-5.045982
 20
15.786680
 30
0.0
  0
LWPOLYLINE
  5
133
100
AcDbEntity
  8
holes
 62
7
100
AcDbPolyline
 90
2
 70
0
 10
0.844279
 20
13.682760
 30
0.0
 10
-1.883712
 20
12.624420
 30
0.0
  0
SPLINE
  5
134
100
AcDbEntity
  8
holes
 62
7
100
AcDbSpline
 70
8
 71
3
 72
8
 73
4
 74
0
 40
0
 40
0
 40
0
 40
0
 40
1
 40
1
 40
1
 40
1
 10
-5.045982
 20
26.508870
 30
0.0
 10
-5.045982
 20
28.260770
 30
0.0
 10
-3.635609
 20
29.671140
 30
0.0
 10
-1.883712
 20
29.671140
 30
0.0
  0
LWPOLYLINE
  5
135
100
AcDbEntity
  8
holes
 62
7
100
AcDbPolyline
 90
2
 70
0
 10
-5.045982
 20
15.786680
 30
0.0
 10
-5.045982
 20
26.508870
 30
0.0
  0
LWPOLYLINE
  5
136
100
AcDbEntity
  8
holes
 62
7
100
AcDbPolyline
 90
1
 70
1
 10
-1.883712
 20
29.671140
 30
0.0
  0
ENDSEC
  0
SECTION
  2
OBJECTS
  0
DICTIONARY
  5
C
330
0
100
AcDbDictionary
  3
ACAD_GROUP
350
D
  3
ACAD_MLINESTYLE
350
17
  0
DICTIONARY
  5
D
330
C
100
AcDbDictionary
  0
DICTIONARY
  5
1A
330
C
100
AcDbDictionary
  0
DICTIONARY
  5
17
330
C
100
AcDbDictionary
  3
STANDARD
350
18
  0
DICTIONARY
  5
19
330
C
100
AcDbDictionary
  0
ENDSEC
  0
EOF
