<?xml version="1.0" standalone="no"?>
<!DOCTYPE svg PUBLIC "-//W3C//DTD SVG 1.1//EN" "http://www.w3.org/Graphics/SVG/1.1/DTD/svg11.dtd">
<svg width="185mm" height="190mm" viewBox="-69 -186 185 190" xmlns="http://www.w3.org/2000/svg" version="1.1">
<title>OpenSCAD Model</title>
<path d="
M -62.4,-9.99834 L -45.6878,-29.325 L 45.6878,-29.325 L 62.4,-9.99834 L 62.4,3.175 L 68.75,3.175
 L 68.75,-32.5 L 41.3666,-129.333 L 50.5431,-136.825 L 54.075,-136.825 L 54.075,-143.175 L 38.35,-143.175
 L 38.35,-185.675 L 32,-185.675 L 32,-140 L 34.8827,-129.806 L 0,-101.325 L -34.8827,-129.806
 L -32,-140 L -32,-185.675 L -38.35,-185.675 L -38.35,-143.175 L -54.075,-143.175 L -54.075,-136.825
 L -50.5431,-136.825 L -41.3666,-129.333 L -68.75,-32.5 L -68.75,3.175 L -62.4,3.175 z
M 39.2479,-136.825 L 43.4794,-136.825 L 40.0416,-134.018 z
M -43.4794,-136.825 L -39.2479,-136.825 L -40.0416,-134.018 z
M -36.2078,-125.121 L -3.53185,-98.4418 L -55.8266,-55.7448 z
M 3.53185,-98.4418 L 36.2078,-125.121 L 55.8266,-55.7448 z
M -61.5021,-35.675 L -57.9471,-48.2462 L 0,-95.5581 L 57.9471,-48.2462 L 61.5021,-35.675 L 43.35,-35.675
 L 43.35,-43.675 L 37,-43.675 L 37,-35.675 z
M -62.4,-29.325 L -51.6083,-29.325 L -62.4,-16.845 z
M 51.6083,-29.325 L 62.4,-29.325 L 62.4,-16.845 z
M 114.563,-29.325 L 115.675,-29.325 L 115.675,-143.175 L 114.806,-143.175 L 103.175,-185.675 L 96.825,-185.675
 L 109.325,-140 L 109.325,-32.5 L 96.825,3.175 L 103.175,3.175 z
" stroke="black" fill="lightgray" stroke-width="0.5"/>
</svg>
